<svg xmlns="http://www.w3.org/2000/svg" viewBox="0 0 521.74 713.74"><defs><style>.cls-1{fill:#304ea0;}</style></defs><g id="레이어_2" data-name="레이어 2"><g id="레이어_2-2" data-name="레이어 2"><path class="cls-1" d="M56.12,352c15.74-8.63,26.45-26.73,43.4-46.36,28.62-33.14,29-27.87,47.28-48.26,37.1-41.34,54.07-62.81,56.29-83.78.45-4.28.32-7-2.78-14.2-12.85-30-64.92-33-93.2-29.52a125.71,125.71,0,0,0-49,16.69c-4,2.42-22.79,14.09-39,37.35C11.29,195,3.59,206,.9,221.91c-2.72,16.1.92,30.12,8,48.4C17.08,291.29,30.46,316.92,56.12,352Z"/><path class="cls-1" d="M70.54,427.31C63.26,436.49,66.46,440,65,473.56c-1.9,42.91-7.9,50.64-1.15,65.38s19.27,16.47,64.37,37.13C186.9,603,194.16,617,208,608.52c16.71-10.28,21-16.57,50.33-75.76,12-24.19,20.85-35.89,21.26-53.88.31-13.49-2.12-21.54-4.44-31-3.49-14.33-3.55-16.55-5.75-19.47-14.44-19.21-55.16-13.27-127.9-11.84C101,417.34,81,414.11,70.54,427.31Z"/><path class="cls-1" d="M75,396.67C90.87,405.57,282,407.08,286.45,398c8.36-17,7.84-29.25,9.19-72.86.67-21.71-.84-35.89-7.83-51.76-9.27-21-21.51-18.89-20.77-31.35.7-11.56,18.66-13.46,37.28-33.74,14.88-16.21,8.48-22.15,19.92-32.74,22.55-20.88,58-12.2,60.25-23.17,1.4-6.8-12.2-10.32-12.76-22.16-.35-7.31,4.55-11.9,16.85-26.19,16.09-18.68,24.14-28.13,24.51-33.24,1.22-17-25.34-41.8-48.51-39.28C335.08,34.73,341,79,293.09,109.59c-24.72,15.81-44,15.33-57.19,37.27-8.33,13.81-4.45,24.77-12.77,37.27-10.72,16.12-31.11,48-80.68,95.7-32.08,30.87-48.84,47.2-66,82.6C69.59,376.44,68.19,392.82,75,396.67Z"/><path class="cls-1" d="M196,132.72c4.34,3.06,13.75,17,25.45,14,6.54-1.66,5.36-9.15,13.95-12.25,5.63-2,5.69-3,9.2-5.7,4.59-3.6,5-5.84,9.53-11.32,3.43-4.13,7.63-4.84,10.55-6.13,17.29-7.63,11.48-39.87,29.7-52,6.3-4.2,17.46-14.29,29.88-11.15,3,.76,8.68,5,12.25,1.57A13.86,13.86,0,0,0,339.9,45c2.42-4.85,4.8-7.56,8.59-11.66,2-2.2,8.26-6.51,7.06-10.13-1.72-5.22-16.09-.62-34-4.43C296.21,13.4,292.15-2.66,276.24.38c-9.5,1.82-17.46,9.33-24.51,16-1.61,1.52-4.3,4.22-11.92,14q-9.9,12.66-19,26C197,91.16,172.6,109.08,179.6,122,181.6,125.74,191.81,129.77,196,132.72Z"/><path class="cls-1" d="M285.94,419.1a166.71,166.71,0,0,1,9.7,48c.48,9.35,1.17,25-3.57,43.41-7.2,27.92-23.22,47.89-31.66,58.21-16.8,20.53-31.26,29.21-32.68,48.51-.32,4.21,1.15,5.36,4.08,10.34,4.84,8.22,14.53,11.78,18.64,12.38,28.79,4.26,62.22,26.76,89.1,42.64,26.43,15.61,36.06,27.51,50.56,23.49,8.3-2.3,13.26-8.46,18.38-15.32,29.61-39.69,44.42-59.54,47-85.78,2-20.09-3.45-33.27-18.89-71Q411.8,473.49,387,413Z"/><path class="cls-1" d="M297.68,262.9c.07,4.8,5.14,10.51,10.7,17.86,9.53,12.6-2.61,24.88,3.29,49.2,2.06,8.48,3.11,4.54,11.19,23.58,11.29,26.58,10.48,35.84,20.27,42.16,4.16,2.69,7.68,4.46,22.85,4.34,65.18-.5,59.94-2.26,76-1.68,16.54.59,23.45,4.27,29.63-1,8.16-7,2.59-17.52,11.19-29,10.31-13.76,27-10.09,28.63-18.87,1.45-7.54-9.27-18.22-20.07-19.88-9-1.39-12.34,4.4-18.77,4.38-18.83-.05-18.1-49.76-48.05-75.82-34.66-30.14-90.88-11.67-109-5.73C310.61,254.1,297.6,256.29,297.68,262.9Z"/><path class="cls-1" d="M405.17,416.55c17.18,30.86,29.68,57.56,38.3,77.36,27.23,62.53,29.9,88.57,30.64,98,1.07,13.89,2.45,34.11-4.6,59a152.54,152.54,0,0,1-36,62.81h74.3c16.15-30,15.58-50.61,11.49-64.34-7.65-25.64-31-38.67-26-60.51,2.16-9.46,8.06-13.63,7.66-26-.32-9.61-4.07-13.82-3.07-23.75s5.72-16.33,6.9-18.38c5.67-9.89-1.41-32.77-59.49-106A108.52,108.52,0,0,0,405.17,416.55Z"/></g></g></svg>